<svg xmlns="http://www.w3.org/2000/svg" width="78.133" height="77.908" viewBox="0 0 78.133 77.908">
  <g id="Group_57" data-name="Group 57" transform="translate(0.134 0.174)">
    <path id="Stroke_27" data-name="Stroke 27" d="M70.508,35.254A35.254,35.254,0,1,1,35.254,0,35.254,35.254,0,0,1,70.508,35.254Z" transform="translate(3.699 3.469)" fill="#ceeaf6" stroke="#1a3761" stroke-linecap="round" stroke-linejoin="round" stroke-miterlimit="10" stroke-width="1"/>
    <path id="Stroke_1" data-name="Stroke 1" d="M11.4,0A38.833,38.833,0,0,1,8.2,4.993Q7.311,6.178,6.346,7.276A38.383,38.383,0,0,1,0,13.052" transform="translate(61.523 56.885)" fill="none" stroke="#1a3761" stroke-linecap="round" stroke-linejoin="round" stroke-miterlimit="10" stroke-width="1"/>
    <path id="Stroke_3" data-name="Stroke 3" d="M2.139,0A38.5,38.5,0,0,1,0,21.47" transform="translate(74.682 31.66)" fill="none" stroke="#1a3761" stroke-linecap="round" stroke-linejoin="round" stroke-miterlimit="10" stroke-width="1"/>
    <path id="Stroke_5" data-name="Stroke 5" d="M0,0Q.395.693.76,1.4q.864,1.673,1.558,3.416A38.677,38.677,0,0,1,3.7,8.938" transform="translate(72.411 19.607)" fill="none" stroke="#1a3761" stroke-linecap="round" stroke-linejoin="round" stroke-miterlimit="10" stroke-width="1"/>
    <path id="Stroke_7" data-name="Stroke 7" d="M0,0Q.512.608.995,1.233q.811,1.049,1.542,2.144" transform="translate(68.452 13.93)" fill="none" stroke="#1a3761" stroke-linecap="round" stroke-linejoin="round" stroke-miterlimit="10" stroke-width="1"/>
    <path id="Stroke_9" data-name="Stroke 9" d="M0,0Q.723.106,1.444.24a38.359,38.359,0,0,1,16.093,7.1,38.784,38.784,0,0,1,4.8,4.281" transform="translate(44.583 0.6)" fill="none" stroke="#1a3761" stroke-linecap="round" stroke-linejoin="round" stroke-miterlimit="10" stroke-width="1"/>
    <path id="Stroke_11" data-name="Stroke 11" d="M0,7.031q.4-.288.808-.565A38.559,38.559,0,0,1,18.758,0" transform="translate(16.5 0.371)" fill="none" stroke="#1a3761" stroke-linecap="round" stroke-linejoin="round" stroke-miterlimit="10" stroke-width="1"/>
    <path id="Stroke_13" data-name="Stroke 13" d="M0,9.458q.919-1.482,1.988-2.9A38.643,38.643,0,0,1,8.245,0" transform="translate(6.193 8.992)" fill="none" stroke="#1a3761" stroke-linecap="round" stroke-linejoin="round" stroke-miterlimit="10" stroke-width="1"/>
    <path id="Stroke_15" data-name="Stroke 15" d="M0,2.532Q.506,1.252,1.11,0" transform="translate(3.122 22.021)" fill="none" stroke="#1a3761" stroke-linecap="round" stroke-linejoin="round" stroke-miterlimit="10" stroke-width="1"/>
    <path id="Stroke_17" data-name="Stroke 17" d="M.3,16.478A38.548,38.548,0,0,1,1.35,1.568Q1.565.781,1.814,0" transform="translate(0.371 27.152)" fill="none" stroke="#1a3761" stroke-linecap="round" stroke-linejoin="round" stroke-miterlimit="10" stroke-width="1"/>
    <path id="Stroke_19" data-name="Stroke 19" d="M19.927,26.072c-.175-.09-.348-.183-.522-.276a38.777,38.777,0,0,1-4.921-3.156A38.366,38.366,0,0,1,0,0" transform="translate(1.304 46.846)" fill="none" stroke="#1a3761" stroke-linecap="round" stroke-linejoin="round" stroke-miterlimit="10" stroke-width="1"/>
    <path id="Stroke_21" data-name="Stroke 21" d="M1.46.617Q.726.326,0,0" transform="translate(23.297 73.912)" fill="none" stroke="#1a3761" stroke-linecap="round" stroke-linejoin="round" stroke-miterlimit="10" stroke-width="1"/>
    <path id="Stroke_23" data-name="Stroke 23" d="M3.839,1.008Q3.53.944,3.222.875T2.6.73Q1.293.412,0,0" transform="translate(27.244 75.418)" fill="none" stroke="#1a3761" stroke-linecap="round" stroke-linejoin="round" stroke-miterlimit="10" stroke-width="1"/>
    <path id="Stroke_25" data-name="Stroke 25" d="M15.42,0A38.723,38.723,0,0,1,0,2.556" transform="translate(37.416 74.647)" fill="none" stroke="#1a3761" stroke-linecap="round" stroke-linejoin="round" stroke-miterlimit="10" stroke-width="1"/>
    <path id="Stroke_27-2" data-name="Stroke 27" d="M70.508,35.254A35.254,35.254,0,1,1,35.254,0,35.254,35.254,0,0,1,70.508,35.254Z" transform="translate(3.699 3.469)" fill="none" stroke="#1a3761" stroke-linecap="round" stroke-linejoin="round" stroke-miterlimit="10" stroke-width="1"/>
    <path id="Stroke_29" data-name="Stroke 29" d="M4.4,0h0A4.4,4.4,0,0,0,0,4.4V7.866H8.8V4.4A4.4,4.4,0,0,0,4.4,0Z" transform="translate(15.567 17.858)" fill="none" stroke="#1a3761" stroke-linecap="round" stroke-linejoin="round" stroke-miterlimit="10" stroke-width="1"/>
    <path id="Stroke_31" data-name="Stroke 31" d="M30.892,5.914A5.914,5.914,0,0,0,24.978,0H0" transform="translate(19.968 17.859)" fill="none" stroke="#1a3761" stroke-linecap="round" stroke-linejoin="round" stroke-miterlimit="10" stroke-width="1"/>
    <path id="Stroke_33" data-name="Stroke 33" d="M0,10.225c0-.531.551-1.012.631-1.52S.338,7.556.5,7.065s.835-.787,1.072-1.25.077-1.179.383-1.6,1.036-.488,1.4-.857.435-1.1.857-1.4,1.134-.145,1.6-.383S6.564.661,7.065.5,8.183.713,8.705.63,9.695,0,10.225,0s1.012.551,1.52.63S12.895.338,13.386.5s.787.835,1.25,1.072,1.179.077,1.6.383.488,1.036.857,1.4,1.1.435,1.4.857.145,1.134.383,1.6.909.75,1.072,1.25-.215,1.119-.132,1.64.63.99.63,1.52-.551,1.012-.63,1.52.292,1.149.132,1.64-.835.787-1.072,1.25-.077,1.179-.383,1.6-1.036.488-1.4.857-.435,1.1-.857,1.4-1.134.145-1.6.383-.749.909-1.249,1.072-1.119-.215-1.64-.132-.99.63-1.52.63-1.012-.551-1.52-.63-1.149.292-1.641.132-.787-.835-1.249-1.072-1.18-.077-1.6-.383-.488-1.036-.857-1.4-1.1-.435-1.4-.857-.145-1.134-.383-1.6S.66,13.886.5,13.386s.215-1.119.133-1.64S0,10.756,0,10.225Z" transform="translate(36.196 22.665)" fill="none" stroke="#1a3761" stroke-linecap="round" stroke-linejoin="round" stroke-miterlimit="10" stroke-width="1"/>
    <path id="Stroke_35" data-name="Stroke 35" d="M0,2.964A2.964,2.964,0,1,1,2.964,5.928,2.964,2.964,0,0,1,0,2.964Z" transform="translate(43.457 29.926)" fill="none" stroke="#1a3761" stroke-linecap="round" stroke-linejoin="round" stroke-miterlimit="10" stroke-width="1"/>
    <path id="Stroke_37" data-name="Stroke 37" d="M8.686,0A6.209,6.209,0,0,1,4.247,1.859,6.207,6.207,0,0,1,0,.187" transform="translate(42.174 37.261)" fill="none" stroke="#1a3761" stroke-linecap="round" stroke-linejoin="round" stroke-miterlimit="10" stroke-width="1"/>
    <path id="Stroke_39" data-name="Stroke 39" d="M.235,7.929a6.23,6.23,0,1,1,12.225-1.7" transform="translate(40.191 26.66)" fill="none" stroke="#1a3761" stroke-linecap="round" stroke-linejoin="round" stroke-miterlimit="10" stroke-width="1"/>
    <path id="Stroke_41" data-name="Stroke 41" d="M0,0V9.074L5.241,5.406l5.535,3.668V0" transform="translate(41.276 41.43)" fill="none" stroke="#1a3761" stroke-linecap="round" stroke-linejoin="round" stroke-miterlimit="10" stroke-width="1"/>
    <path id="Stroke_43" data-name="Stroke 43" d="M.31,0V1.963" transform="translate(46.208 44.874)" fill="none" stroke="#1a3761" stroke-linecap="round" stroke-linejoin="round" stroke-miterlimit="10" stroke-width="1"/>
    <path id="Stroke_45" data-name="Stroke 45" d="M.31,0V3.85" transform="translate(50.296 49.65)" fill="none" stroke="#1a3761" stroke-linecap="round" stroke-linejoin="round" stroke-miterlimit="10" stroke-width="1"/>
    <path id="Stroke_47" data-name="Stroke 47" d="M6.859,0H32.177a6.818,6.818,0,0,1-6.818,6.818H0" transform="translate(31.187 53.5)" fill="none" stroke="#1a3761" stroke-linecap="round" stroke-linejoin="round" stroke-miterlimit="10" stroke-width="1"/>
    <path id="Stroke_49" data-name="Stroke 49" d="M13.637,27.775h0A6.819,6.819,0,0,1,0,27.775V0" transform="translate(24.368 25.725)" fill="none" stroke="#1a3761" stroke-linecap="round" stroke-linejoin="round" stroke-miterlimit="10" stroke-width="1"/>
    <path id="Stroke_51" data-name="Stroke 51" d="M0,.31H5.008" transform="translate(28.227 40.903)" fill="none" stroke="#1a3761" stroke-linecap="round" stroke-linejoin="round" stroke-miterlimit="10" stroke-width="1"/>
    <path id="Stroke_53" data-name="Stroke 53" d="M0,.31H6.973" transform="translate(28.227 44.545)" fill="none" stroke="#1a3761" stroke-linecap="round" stroke-linejoin="round" stroke-miterlimit="10" stroke-width="1"/>
    <path id="Stroke_55" data-name="Stroke 55" d="M0,.31H9.892" transform="translate(28.227 48.187)" fill="none" stroke="#1a3761" stroke-linecap="round" stroke-linejoin="round" stroke-miterlimit="10" stroke-width="1"/>
  </g>
</svg>
