<svg xmlns="http://www.w3.org/2000/svg" width="78.072" height="78.523" viewBox="0 0 78.072 78.523">
  <g id="Group_56" data-name="Group 56" transform="translate(0.041 0.49)">
    <path id="Stroke_53" data-name="Stroke 53" stroke="#1a3761" d="M70.508,35.536A35.255,35.255,0,1,1,35.254,0,35.4,35.4,0,0,1,70.508,35.536Z" fill="#0492d1" transform="translate(3.731 3.178)" stroke-linecap="round" stroke-linejoin="round" stroke-miterlimit="10" stroke-width="1" opacity="0.197"/>
    <path id="Stroke_53-2" data-name="Stroke 53" d="M70.508,35.536A35.255,35.255,0,1,1,35.254,0,35.4,35.4,0,0,1,70.508,35.536Z" transform="translate(3.731 3.178)" fill="none" stroke="#1a3761" stroke-linecap="round" stroke-linejoin="round" stroke-miterlimit="10" stroke-width="1"/>
    <path id="Stroke_1" data-name="Stroke 1" d="M.543,8.211.076,0" transform="translate(43.48 46.526)" fill="none" stroke="#1a3761" stroke-linecap="round" stroke-linejoin="round" stroke-miterlimit="10" stroke-width="1"/>
    <path id="Stroke_2" data-name="Stroke 2" d="M.543,0,.076,8.211" transform="translate(33.901 46.526)" fill="none" stroke="#1a3761" stroke-linecap="round" stroke-linejoin="round" stroke-miterlimit="10" stroke-width="1"/>
    <path id="Stroke_3" data-name="Stroke 3" d="M2.737,5.962S.639,6.422.024,2.229A2.311,2.311,0,0,1,1.115,0" transform="translate(26.119 33.978)" fill="none" stroke="#1a3761" stroke-linecap="round" stroke-linejoin="round" stroke-miterlimit="10" stroke-width="1"/>
    <path id="Stroke_5" data-name="Stroke 5" d="M0,5.76S1.715,5.73,2.482,1.991A1.788,1.788,0,0,0,1.774,0" transform="translate(48.929 33.096)" fill="none" stroke="#1a3761" stroke-linecap="round" stroke-linejoin="round" stroke-miterlimit="10" stroke-width="1"/>
    <path id="Stroke_7" data-name="Stroke 7" d="M0,0S2.276,2.342,10.207,4.416c7.092,1.855,7.625,7.637,7.6,11.591" transform="translate(43.48 49.891)" fill="none" stroke="#1a3761" stroke-linecap="round" stroke-linejoin="round" stroke-miterlimit="10" stroke-width="1"/>
    <path id="Stroke_9" data-name="Stroke 9" d="M17.8,0S15.529,2.342,7.6,4.416C.5,6.272-.027,12.058,0,16.012" transform="translate(16.684 49.891)" fill="none" stroke="#1a3761" stroke-linecap="round" stroke-linejoin="round" stroke-miterlimit="10" stroke-width="1"/>
    <path id="Stroke_11" data-name="Stroke 11" d="M0,0A19.289,19.289,0,0,1,1.579,7.182v6.243" transform="translate(23.602 54.497)" fill="none" stroke="#1a3761" stroke-linecap="round" stroke-linejoin="round" stroke-miterlimit="10" stroke-width="1"/>
    <path id="Stroke_13" data-name="Stroke 13" d="M1.578,0A19.3,19.3,0,0,0,0,7.182v6.243" transform="translate(52.157 54.497)" fill="none" stroke="#1a3761" stroke-linecap="round" stroke-linejoin="round" stroke-miterlimit="10" stroke-width="1"/>
    <path id="Stroke_15" data-name="Stroke 15" d="M10.752,13.931A9.124,9.124,0,0,1,4.9,11.43,13.908,13.908,0,0,1,2.437,8.5,23.362,23.362,0,0,1,0,0" transform="translate(27.958 33.435)" fill="none" stroke="#1a3761" stroke-linecap="round" stroke-linejoin="round" stroke-miterlimit="10" stroke-width="1"/>
    <path id="Stroke_17" data-name="Stroke 17" d="M10.932,0A16.4,16.4,0,0,1,8.316,8.5,13.926,13.926,0,0,1,5.855,11.43,9.124,9.124,0,0,1,0,13.931" transform="translate(38.936 33.435)" fill="none" stroke="#1a3761" stroke-linecap="round" stroke-linejoin="round" stroke-miterlimit="10" stroke-width="1"/>
    <path id="Stroke_19" data-name="Stroke 19" d="M16.672,0s-.2,7.289-7.231,7.289H7.232C.2,7.289,0,0,0,0" transform="translate(30.6 52.508)" fill="none" stroke="#1a3761" stroke-linecap="round" stroke-linejoin="round" stroke-miterlimit="10" stroke-width="1"/>
    <path id="Stroke_21" data-name="Stroke 21" d="M23.77,19.341s2.4-4.6,1.793-8.232c-1.594-9.5-12.545-14.959-19.852-7.9,0,0-10.733,2.44-2.771,20.934" transform="translate(26.098 14.295)" fill="none" stroke="#1a3761" stroke-linecap="round" stroke-linejoin="round" stroke-miterlimit="10" stroke-width="1"/>
    <path id="Stroke_23" data-name="Stroke 23" d="M0,10.649C.093,7.56.528,5.814,4.515,1.614c0,0,5.319-1.468,11.22,3.614,0,0,2.359-1.785-1.468-5.228,0,0,6.58,1.68,7.841,10.448" transform="translate(27.958 22.786)" fill="none" stroke="#1a3761" stroke-linecap="round" stroke-linejoin="round" stroke-miterlimit="10" stroke-width="1"/>
    <path id="Stroke_25" data-name="Stroke 25" d="M3.611,0s4.513,2.99,0,8.839A17.887,17.887,0,0,0,0,4.679" transform="translate(44.833 40.126)" fill="none" stroke="#1a3761" stroke-linecap="round" stroke-linejoin="round" stroke-miterlimit="10" stroke-width="1"/>
    <path id="Stroke_27" data-name="Stroke 27" d="M11.4,0A39.2,39.2,0,0,1,8.2,5.033q-.893,1.2-1.858,2.3A38.466,38.466,0,0,1,0,13.156" transform="translate(61.555 57.022)" fill="none" stroke="#1a3761" stroke-linecap="round" stroke-linejoin="round" stroke-miterlimit="10" stroke-width="1"/>
    <path id="Stroke_29" data-name="Stroke 29" d="M2.139,0A39.1,39.1,0,0,1,0,21.642" transform="translate(74.713 31.595)" fill="none" stroke="#1a3761" stroke-linecap="round" stroke-linejoin="round" stroke-miterlimit="10" stroke-width="1"/>
    <path id="Stroke_31" data-name="Stroke 31" d="M0,0Q.4.7.76,1.41,1.625,3.1,2.318,4.853A39.342,39.342,0,0,1,3.7,9.01" transform="translate(72.442 19.445)" fill="none" stroke="#1a3761" stroke-linecap="round" stroke-linejoin="round" stroke-miterlimit="10" stroke-width="1"/>
    <path id="Stroke_33" data-name="Stroke 33" d="M0,0Q.512.613.995,1.243,1.806,2.3,2.537,3.4" transform="translate(68.483 13.724)" fill="none" stroke="#1a3761" stroke-linecap="round" stroke-linejoin="round" stroke-miterlimit="10" stroke-width="1"/>
    <path id="Stroke_35" data-name="Stroke 35" d="M0,0Q.723.107,1.444.242A38.2,38.2,0,0,1,17.536,7.4a38.849,38.849,0,0,1,4.8,4.316" transform="translate(44.614 0.287)" fill="none" stroke="#1a3761" stroke-linecap="round" stroke-linejoin="round" stroke-miterlimit="10" stroke-width="1"/>
    <path id="Stroke_37" data-name="Stroke 37" d="M0,7.087q.4-.29.808-.569A38.366,38.366,0,0,1,18.758,0" transform="translate(16.531 0.056)" fill="none" stroke="#1a3761" stroke-linecap="round" stroke-linejoin="round" stroke-miterlimit="10" stroke-width="1"/>
    <path id="Stroke_39" data-name="Stroke 39" d="M0,9.534Q.919,8.04,1.988,6.607A38.844,38.844,0,0,1,8.245,0" transform="translate(6.223 8.746)" fill="none" stroke="#1a3761" stroke-linecap="round" stroke-linejoin="round" stroke-miterlimit="10" stroke-width="1"/>
    <path id="Stroke_41" data-name="Stroke 41" d="M0,2.553Q.506,1.263,1.109,0" transform="translate(3.153 21.878)" fill="none" stroke="#1a3761" stroke-linecap="round" stroke-linejoin="round" stroke-miterlimit="10" stroke-width="1"/>
    <path id="Stroke_43" data-name="Stroke 43" d="M.3,15.029A39.158,39.158,0,0,1,1.35,0" transform="translate(0.464 28.482)" fill="none" stroke="#1a3761" stroke-linecap="round" stroke-linejoin="round" stroke-miterlimit="10" stroke-width="1"/>
    <path id="Stroke_45" data-name="Stroke 45" d="M19.927,26.28c-.175-.091-.348-.185-.522-.278a38.79,38.79,0,0,1-4.921-3.182A38.709,38.709,0,0,1,0,0" transform="translate(1.334 46.902)" fill="none" stroke="#1a3761" stroke-linecap="round" stroke-linejoin="round" stroke-miterlimit="10" stroke-width="1"/>
    <path id="Stroke_47" data-name="Stroke 47" d="M1.46.622Q.726.329,0,0" transform="translate(23.328 74.185)" fill="none" stroke="#1a3761" stroke-linecap="round" stroke-linejoin="round" stroke-miterlimit="10" stroke-width="1"/>
    <path id="Stroke_49" data-name="Stroke 49" d="M3.839,1.017Q3.53.953,3.222.882T2.6.736Q1.294.415,0,0" transform="translate(27.274 75.703)" fill="none" stroke="#1a3761" stroke-linecap="round" stroke-linejoin="round" stroke-miterlimit="10" stroke-width="1"/>
    <path id="Stroke_51" data-name="Stroke 51" d="M15.42,0A38.446,38.446,0,0,1,0,2.576" transform="translate(37.447 74.926)" fill="none" stroke="#1a3761" stroke-linecap="round" stroke-linejoin="round" stroke-miterlimit="10" stroke-width="1"/>
  </g>
</svg>
