<svg xmlns="http://www.w3.org/2000/svg" width="78.133" height="78.523" viewBox="0 0 78.133 78.523">
  <g id="Group_67" data-name="Group 67" transform="translate(0.041 0.078)">
    <path id="Stroke_27" data-name="Stroke 27" d="M70.508,35.536A35.255,35.255,0,1,1,35.254,0,35.4,35.4,0,0,1,70.508,35.536Z" transform="translate(3.792 3.59)" fill="#ceeaf6" stroke="#1a3761" stroke-linecap="round" stroke-linejoin="round" stroke-miterlimit="10" stroke-width="1"/>
    <path id="Stroke_1" data-name="Stroke 1" d="M11.4,0A39.142,39.142,0,0,1,8.2,5.033q-.892,1.2-1.857,2.3A38.494,38.494,0,0,1,0,13.156" transform="translate(61.616 57.434)" fill="none" stroke="#1a3761" stroke-linecap="round" stroke-linejoin="round" stroke-miterlimit="10" stroke-width="1"/>
    <path id="Stroke_3" data-name="Stroke 3" d="M2.139,0A39.1,39.1,0,0,1,0,21.642" transform="translate(74.775 32.007)" fill="none" stroke="#1a3761" stroke-linecap="round" stroke-linejoin="round" stroke-miterlimit="10" stroke-width="1"/>
    <path id="Stroke_5" data-name="Stroke 5" d="M0,0Q.395.7.76,1.41,1.625,3.1,2.318,4.853A39.2,39.2,0,0,1,3.7,9.01" transform="translate(72.504 19.857)" fill="none" stroke="#1a3761" stroke-linecap="round" stroke-linejoin="round" stroke-miterlimit="10" stroke-width="1"/>
    <path id="Stroke_7" data-name="Stroke 7" d="M0,0Q.512.613.995,1.243,1.805,2.3,2.537,3.4" transform="translate(68.545 14.135)" fill="none" stroke="#1a3761" stroke-linecap="round" stroke-linejoin="round" stroke-miterlimit="10" stroke-width="1"/>
    <path id="Stroke_9" data-name="Stroke 9" d="M0,0Q.723.107,1.444.242A38.208,38.208,0,0,1,17.537,7.4a38.888,38.888,0,0,1,4.8,4.316" transform="translate(44.675 0.699)" fill="none" stroke="#1a3761" stroke-linecap="round" stroke-linejoin="round" stroke-miterlimit="10" stroke-width="1"/>
    <path id="Stroke_11" data-name="Stroke 11" d="M0,7.087q.4-.29.808-.569A38.366,38.366,0,0,1,18.758,0" transform="translate(16.593 0.468)" fill="none" stroke="#1a3761" stroke-linecap="round" stroke-linejoin="round" stroke-miterlimit="10" stroke-width="1"/>
    <path id="Stroke_13" data-name="Stroke 13" d="M0,9.534Q.918,8.04,1.988,6.607A38.82,38.82,0,0,1,8.245,0" transform="translate(6.285 9.157)" fill="none" stroke="#1a3761" stroke-linecap="round" stroke-linejoin="round" stroke-miterlimit="10" stroke-width="1"/>
    <path id="Stroke_15" data-name="Stroke 15" d="M0,2.553Q.506,1.263,1.11,0" transform="translate(3.215 22.29)" fill="none" stroke="#1a3761" stroke-linecap="round" stroke-linejoin="round" stroke-miterlimit="10" stroke-width="1"/>
    <path id="Stroke_17" data-name="Stroke 17" d="M.3,16.61A39.154,39.154,0,0,1,1.35,1.581Q1.565.787,1.813,0" transform="translate(0.464 27.463)" fill="none" stroke="#1a3761" stroke-linecap="round" stroke-linejoin="round" stroke-miterlimit="10" stroke-width="1"/>
    <path id="Stroke_19" data-name="Stroke 19" d="M19.927,26.28c-.175-.091-.349-.185-.522-.278a38.746,38.746,0,0,1-4.921-3.182A38.706,38.706,0,0,1,0,0" transform="translate(1.397 47.314)" fill="none" stroke="#1a3761" stroke-linecap="round" stroke-linejoin="round" stroke-miterlimit="10" stroke-width="1"/>
    <path id="Stroke_21" data-name="Stroke 21" d="M1.46.622Q.726.329,0,0" transform="translate(23.39 74.597)" fill="none" stroke="#1a3761" stroke-linecap="round" stroke-linejoin="round" stroke-miterlimit="10" stroke-width="1"/>
    <path id="Stroke_23" data-name="Stroke 23" d="M3.839,1.017Q3.53.953,3.222.882T2.6.736Q1.293.415,0,0" transform="translate(27.336 76.115)" fill="none" stroke="#1a3761" stroke-linecap="round" stroke-linejoin="round" stroke-miterlimit="10" stroke-width="1"/>
    <path id="Stroke_25" data-name="Stroke 25" d="M15.42,0A38.444,38.444,0,0,1,0,2.576" transform="translate(37.509 75.338)" fill="none" stroke="#1a3761" stroke-linecap="round" stroke-linejoin="round" stroke-miterlimit="10" stroke-width="1"/>
    <path id="Stroke_29" data-name="Stroke 29" d="M23.041,0V2.394L0,6.807V0" transform="translate(26.533 22.001)" fill="none" stroke="#1a3761" stroke-linecap="round" stroke-linejoin="round" stroke-miterlimit="10" stroke-width="1"/>
    <path id="Stroke_31" data-name="Stroke 31" d="M0,0,21.654,2.371,43.138,0V3.171L41.223,6.028l1.923,3.484,1.884-3.484-1.242-1.9" transform="translate(16.4 20.557)" fill="none" stroke="#1a3761" stroke-linecap="round" stroke-linejoin="round" stroke-miterlimit="10" stroke-width="1"/>
    <path id="Stroke_33" data-name="Stroke 33" d="M43.138,2.371,21.485,0,0,2.371" transform="translate(16.4 18.019)" fill="none" stroke="#1a3761" stroke-linecap="round" stroke-linejoin="round" stroke-miterlimit="10" stroke-width="1"/>
    <path id="Stroke_35" data-name="Stroke 35" d="M.492,2.925.128,0" transform="translate(41.902 49.038)" fill="none" stroke="#1a3761" stroke-linecap="round" stroke-linejoin="round" stroke-miterlimit="10" stroke-width="1"/>
    <path id="Stroke_37" data-name="Stroke 37" d="M.471,0,.148,2.9" transform="translate(34.352 48.86)" fill="none" stroke="#1a3761" stroke-linecap="round" stroke-linejoin="round" stroke-miterlimit="10" stroke-width="1"/>
    <path id="Stroke_39" data-name="Stroke 39" d="M3.8,6.294S1.23,6.262.081,2.176A1.815,1.815,0,0,1,1.142,0" transform="translate(25.712 36.028)" fill="none" stroke="#1a3761" stroke-linecap="round" stroke-linejoin="round" stroke-miterlimit="10" stroke-width="1"/>
    <path id="Stroke_41" data-name="Stroke 41" d="M0,6.644s2.529-.451,3.008-4.67A1.809,1.809,0,0,0,1.611,0" transform="translate(47.462 35.811)" fill="none" stroke="#1a3761" stroke-linecap="round" stroke-linejoin="round" stroke-miterlimit="10" stroke-width="1"/>
    <path id="Stroke_43" data-name="Stroke 43" d="M9.621,12.464a8.16,8.16,0,0,1-5.238-2.237,12.466,12.466,0,0,1-2.2-2.618A20.921,20.921,0,0,1,0,0" transform="translate(28.588 37.268)" fill="none" stroke="#1a3761" stroke-linecap="round" stroke-linejoin="round" stroke-miterlimit="10" stroke-width="1"/>
    <path id="Stroke_45" data-name="Stroke 45" d="M9.781,0A14.679,14.679,0,0,1,7.44,7.609a12.462,12.462,0,0,1-2.2,2.618A8.159,8.159,0,0,1,0,12.464" transform="translate(38.411 37.268)" fill="none" stroke="#1a3761" stroke-linecap="round" stroke-linejoin="round" stroke-miterlimit="10" stroke-width="1"/>
    <path id="Stroke_47" data-name="Stroke 47" d="M2.545,13.252A26.454,26.454,0,0,1,0,2.93L.013,0" transform="translate(26.52 28.808)" fill="none" stroke="#1a3761" stroke-linecap="round" stroke-linejoin="round" stroke-miterlimit="10" stroke-width="1"/>
    <path id="Stroke_49" data-name="Stroke 49" d="M0,13.052A29.446,29.446,0,0,0,1.382,0" transform="translate(48.192 24.396)" fill="none" stroke="#1a3761" stroke-linecap="round" stroke-linejoin="round" stroke-miterlimit="10" stroke-width="1"/>
    <path id="Stroke_51" data-name="Stroke 51" d="M0,9.528C.084,6.765.472,5.2,4.039,1.444c0,0,4.76-1.314,10.04,3.234,0,0,2.111-1.6-1.314-4.678,0,0,5.888,1.5,7.016,9.348" transform="translate(28.588 27.74)" fill="none" stroke="#1a3761" stroke-linecap="round" stroke-linejoin="round" stroke-miterlimit="10" stroke-width="1"/>
    <path id="Stroke_53" data-name="Stroke 53" d="M3.23,0s4.038,2.675,0,7.908A16.016,16.016,0,0,0,0,4.186" transform="translate(43.687 43.255)" fill="none" stroke="#1a3761" stroke-linecap="round" stroke-linejoin="round" stroke-miterlimit="10" stroke-width="1"/>
    <path id="Stroke_55" data-name="Stroke 55" d="M6.624,2.167,3.061,5.872,0,3.919,4.689,0Z" transform="translate(38.64 51.422)" fill="none" stroke="#1a3761" stroke-linecap="round" stroke-linejoin="round" stroke-miterlimit="10" stroke-width="1"/>
    <path id="Stroke_57" data-name="Stroke 57" d="M0,1.929l3.961,4.12L7.022,4.1,2.121,0Z" transform="translate(31.708 51.246)" fill="none" stroke="#1a3761" stroke-linecap="round" stroke-linejoin="round" stroke-miterlimit="10" stroke-width="1"/>
    <path id="Stroke_59" data-name="Stroke 59" d="M0,1.954,3.061,0,6.02,1.954,3.061,4.588Z" transform="translate(35.669 55.341)" fill="none" stroke="#1a3761" stroke-linecap="round" stroke-linejoin="round" stroke-miterlimit="10" stroke-width="1"/>
    <path id="Stroke_61" data-name="Stroke 61" d="M1.476,0,0,12.439l2.64,2.548,2.628-2.379L3.6.15" transform="translate(36.091 58.928)" fill="none" stroke="#1a3761" stroke-linecap="round" stroke-linejoin="round" stroke-miterlimit="10" stroke-width="1"/>
    <path id="Stroke_63" data-name="Stroke 63" d="M0,0A35.243,35.243,0,0,0,6.5,2.3c6.345,1.659,7.22,8.887,7.195,12.426" transform="translate(45.11 53.646)" fill="none" stroke="#1a3761" stroke-linecap="round" stroke-linejoin="round" stroke-miterlimit="10" stroke-width="1"/>
    <path id="Stroke_65" data-name="Stroke 65" d="M13.923,0A34.866,34.866,0,0,1,7.334,2.342C.986,4-.024,10.321,0,13.86" transform="translate(17.965 53.601)" fill="none" stroke="#1a3761" stroke-linecap="round" stroke-linejoin="round" stroke-miterlimit="10" stroke-width="1"/>
    <path id="Stroke_27-2" data-name="Stroke 27" d="M70.508,35.536A35.255,35.255,0,1,1,35.254,0,35.4,35.4,0,0,1,70.508,35.536Z" transform="translate(3.792 3.59)" fill="none" stroke="#1a3761" stroke-linecap="round" stroke-linejoin="round" stroke-miterlimit="10" stroke-width="1"/>
  </g>
</svg>
