<svg xmlns="http://www.w3.org/2000/svg" width="78.133" height="77.908" viewBox="0 0 78.133 77.908">
  <g id="Group_51" data-name="Group 51" transform="translate(0.134 0.174)">
    <path id="Stroke_27" data-name="Stroke 27" d="M70.508,35.254A35.254,35.254,0,1,1,35.254,0,35.254,35.254,0,0,1,70.508,35.254Z" transform="translate(3.699 3.469)" fill="#ceeaf6" stroke="#1a3761" stroke-linecap="round" stroke-linejoin="round" stroke-miterlimit="10" stroke-width="1"/>
    <path id="Stroke_1" data-name="Stroke 1" d="M11.4,0A38.748,38.748,0,0,1,8.2,4.993Q7.311,6.179,6.346,7.276A38.355,38.355,0,0,1,0,13.052" transform="translate(61.523 56.885)" fill="none" stroke="#1a3761" stroke-linecap="round" stroke-linejoin="round" stroke-miterlimit="10" stroke-width="1"/>
    <path id="Stroke_3" data-name="Stroke 3" d="M2.139,0A38.5,38.5,0,0,1,0,21.47" transform="translate(74.682 31.66)" fill="none" stroke="#1a3761" stroke-linecap="round" stroke-linejoin="round" stroke-miterlimit="10" stroke-width="1"/>
    <path id="Stroke_5" data-name="Stroke 5" d="M0,0Q.395.693.76,1.4q.864,1.673,1.558,3.416A38.641,38.641,0,0,1,3.7,8.939" transform="translate(72.411 19.607)" fill="none" stroke="#1a3761" stroke-linecap="round" stroke-linejoin="round" stroke-miterlimit="10" stroke-width="1"/>
    <path id="Stroke_7" data-name="Stroke 7" d="M0,0Q.512.608.995,1.233q.811,1.049,1.542,2.144" transform="translate(68.452 13.931)" fill="none" stroke="#1a3761" stroke-linecap="round" stroke-linejoin="round" stroke-miterlimit="10" stroke-width="1"/>
    <path id="Stroke_9" data-name="Stroke 9" d="M0,0Q.723.106,1.444.24a38.357,38.357,0,0,1,16.093,7.1,38.839,38.839,0,0,1,4.8,4.282" transform="translate(44.583 0.6)" fill="none" stroke="#1a3761" stroke-linecap="round" stroke-linejoin="round" stroke-miterlimit="10" stroke-width="1"/>
    <path id="Stroke_11" data-name="Stroke 11" d="M0,7.031q.4-.288.808-.565A38.559,38.559,0,0,1,18.758,0" transform="translate(16.5 0.372)" fill="none" stroke="#1a3761" stroke-linecap="round" stroke-linejoin="round" stroke-miterlimit="10" stroke-width="1"/>
    <path id="Stroke_13" data-name="Stroke 13" d="M0,9.458q.919-1.482,1.988-2.9A38.643,38.643,0,0,1,8.245,0" transform="translate(6.193 8.992)" fill="none" stroke="#1a3761" stroke-linecap="round" stroke-linejoin="round" stroke-miterlimit="10" stroke-width="1"/>
    <path id="Stroke_15" data-name="Stroke 15" d="M0,2.533Q.506,1.253,1.11,0" transform="translate(3.122 22.02)" fill="none" stroke="#1a3761" stroke-linecap="round" stroke-linejoin="round" stroke-miterlimit="10" stroke-width="1"/>
    <path id="Stroke_17" data-name="Stroke 17" d="M.3,16.478A38.549,38.549,0,0,1,1.35,1.568Q1.565.781,1.814,0" transform="translate(0.371 27.152)" fill="none" stroke="#1a3761" stroke-linecap="round" stroke-linejoin="round" stroke-miterlimit="10" stroke-width="1"/>
    <path id="Stroke_19" data-name="Stroke 19" d="M19.927,26.072c-.175-.09-.348-.183-.522-.276a38.783,38.783,0,0,1-4.921-3.157A38.364,38.364,0,0,1,0,0" transform="translate(1.304 46.845)" fill="none" stroke="#1a3761" stroke-linecap="round" stroke-linejoin="round" stroke-miterlimit="10" stroke-width="1"/>
    <path id="Stroke_21" data-name="Stroke 21" d="M1.46.617C.971.423.483.217,0,0" transform="translate(23.297 73.912)" fill="none" stroke="#1a3761" stroke-linecap="round" stroke-linejoin="round" stroke-miterlimit="10" stroke-width="1"/>
    <path id="Stroke_23" data-name="Stroke 23" d="M3.839,1.008C3.633.966,3.428.921,3.222.875S2.809.78,2.6.73Q1.293.412,0,0" transform="translate(27.244 75.418)" fill="none" stroke="#1a3761" stroke-linecap="round" stroke-linejoin="round" stroke-miterlimit="10" stroke-width="1"/>
    <path id="Stroke_25" data-name="Stroke 25" d="M15.42,0A38.712,38.712,0,0,1,0,2.556" transform="translate(37.416 74.647)" fill="none" stroke="#1a3761" stroke-linecap="round" stroke-linejoin="round" stroke-miterlimit="10" stroke-width="1"/>
    <path id="Stroke_27-2" data-name="Stroke 27" d="M70.508,35.254A35.254,35.254,0,1,1,35.254,0,35.254,35.254,0,0,1,70.508,35.254Z" transform="translate(3.699 3.469)" fill="none" stroke="#1a3761" stroke-linecap="round" stroke-linejoin="round" stroke-miterlimit="10" stroke-width="1"/>
    <path id="Stroke_29" data-name="Stroke 29" d="M32.184,8.529v33.6H0V0H24.182" transform="translate(23.569 18.011)" fill="none" stroke="#1a3761" stroke-linecap="round" stroke-linejoin="round" stroke-miterlimit="10" stroke-width="1"/>
    <path id="Stroke_31" data-name="Stroke 31" d="M0,0,8,8.529" transform="translate(47.75 18.011)" fill="none" stroke="#1a3761" stroke-linecap="round" stroke-linejoin="round" stroke-miterlimit="10" stroke-width="1"/>
    <path id="Stroke_33" data-name="Stroke 33" d="M0,.31H9.873" transform="translate(29.808 26.552)" fill="none" stroke="#1a3761" stroke-linecap="round" stroke-linejoin="round" stroke-miterlimit="10" stroke-width="1"/>
    <path id="Stroke_35" data-name="Stroke 35" d="M0,.31H21.2" transform="translate(29.06 32.198)" fill="none" stroke="#1a3761" stroke-linecap="round" stroke-linejoin="round" stroke-miterlimit="10" stroke-width="1"/>
    <path id="Stroke_37" data-name="Stroke 37" d="M0,.31H21.2" transform="translate(29.06 43.111)" fill="none" stroke="#1a3761" stroke-linecap="round" stroke-linejoin="round" stroke-miterlimit="10" stroke-width="1"/>
    <path id="Stroke_39" data-name="Stroke 39" d="M0,.31H21.2" transform="translate(29.06 37.654)" fill="none" stroke="#1a3761" stroke-linecap="round" stroke-linejoin="round" stroke-miterlimit="10" stroke-width="1"/>
    <path id="Stroke_41" data-name="Stroke 41" d="M0,.31H8.217" transform="translate(29.06 47.744)" fill="none" stroke="#1a3761" stroke-linecap="round" stroke-linejoin="round" stroke-miterlimit="10" stroke-width="1"/>
    <path id="Stroke_43" data-name="Stroke 43" d="M9.869,3.656a1.8,1.8,0,0,1-.024-.609,1.6,1.6,0,0,0-.178-1.063,1.6,1.6,0,0,0-.963-.5,1.782,1.782,0,0,1-.565-.207A1.762,1.762,0,0,1,7.775.81,1.606,1.606,0,0,0,7,.042,1.582,1.582,0,0,0,5.942.2a1.848,1.848,0,0,1-.6.168A1.855,1.855,0,0,1,4.746.2,1.583,1.583,0,0,0,3.692.042,1.606,1.606,0,0,0,2.913.81a1.787,1.787,0,0,1-.365.467,1.794,1.794,0,0,1-.565.207,1.6,1.6,0,0,0-.963.5A1.593,1.593,0,0,0,.843,3.047a1.8,1.8,0,0,1-.024.609,1.729,1.729,0,0,1-.326.481A1.617,1.617,0,0,0,0,5.126a1.617,1.617,0,0,0,.493.989A1.722,1.722,0,0,1,.818,6.6,1.8,1.8,0,0,1,.843,7.2a1.592,1.592,0,0,0,.178,1.063,1.6,1.6,0,0,0,.963.5,1.8,1.8,0,0,1,.565.207,1.778,1.778,0,0,1,.365.468,1.6,1.6,0,0,0,.779.767.888.888,0,0,0,.276.042,2.2,2.2,0,0,0,.778-.2,1.853,1.853,0,0,1,.6-.168,1.853,1.853,0,0,1,.6.168A1.584,1.584,0,0,0,7,10.21a1.606,1.606,0,0,0,.78-.767,1.766,1.766,0,0,1,.365-.468,1.8,1.8,0,0,1,.565-.207,1.6,1.6,0,0,0,.963-.5A1.593,1.593,0,0,0,9.845,7.2,1.8,1.8,0,0,1,9.869,6.6a1.736,1.736,0,0,1,.326-.482,1.617,1.617,0,0,0,.493-.989,1.617,1.617,0,0,0-.493-.989A1.743,1.743,0,0,1,9.869,3.656Z" transform="translate(41.664 47.347)" fill="none" stroke="#1a3761" stroke-linecap="round" stroke-linejoin="round" stroke-miterlimit="10" stroke-width="1"/>
    <path id="Stroke_45" data-name="Stroke 45" d="M3.212,0A3.212,3.212,0,1,0,6.424,3.212,3.216,3.216,0,0,0,3.212,0Z" transform="translate(43.796 49.261)" fill="none" stroke="#1a3761" stroke-linecap="round" stroke-linejoin="round" stroke-miterlimit="10" stroke-width="1"/>
    <path id="Stroke_47" data-name="Stroke 47" d="M0,1.41l.9.94L3.109,0" transform="translate(45.363 51.407)" fill="none" stroke="#1a3761" stroke-linecap="round" stroke-linejoin="round" stroke-miterlimit="10" stroke-width="1"/>
    <path id="Stroke_49" data-name="Stroke 49" d="M0,0V8.529H8" transform="translate(47.75 18.011)" fill="none" stroke="#1a3761" stroke-linecap="round" stroke-linejoin="round" stroke-miterlimit="10" stroke-width="1"/>
  </g>
</svg>
