<svg xmlns="http://www.w3.org/2000/svg" width="78.133" height="78.523" viewBox="0 0 78.133 78.523">
  <g id="Group_55" data-name="Group 55" transform="translate(0.041 0.078)">
    <path id="Stroke_53" data-name="Stroke 53" d="M70.508,35.536A35.255,35.255,0,1,1,35.254,0,35.4,35.4,0,0,1,70.508,35.536Z" transform="translate(3.792 3.59)" fill="#ceeaf6" stroke="#ceeaf6" stroke-linecap="round" stroke-linejoin="round" stroke-miterlimit="10" stroke-width="1"/>
    <g id="Stroke_53-2" data-name="Stroke 53">
      <path id="Stroke_53-3" data-name="Stroke 53" d="M70.508,35.536A35.255,35.255,0,1,1,35.254,0,35.4,35.4,0,0,1,70.508,35.536Z" transform="translate(3.792 3.59)" fill="none" stroke="#1a3761" stroke-linecap="round" stroke-linejoin="round" stroke-miterlimit="10" stroke-width="1"/>
      <path id="Stroke_53-4" data-name="Stroke 53" d="M70.508,35.536A35.255,35.255,0,1,1,35.254,0,35.4,35.4,0,0,1,70.508,35.536Z" transform="translate(3.792 3.59)" fill="none"/>
    </g>
    <path id="Stroke_1" data-name="Stroke 1" d="M0,38.283,3.714,28.3,4.792,14.177a5.217,5.217,0,0,1,1.727-3.5L17.577.821a3.225,3.225,0,0,1,4.6.3,3.288,3.288,0,0,1-.313,4.608L13.728,12.9s4.858,3.605,5.552,9.094-1.36,8.2-2.949,10.1" transform="translate(15.442 26.8)" fill="none" stroke="#1a3761" stroke-linecap="round" stroke-linejoin="round" stroke-miterlimit="10" stroke-width="1"/>
    <g id="Stroke_3" data-name="Stroke 3">
      <path id="Stroke_3-2" data-name="Stroke 3" d="M11.489,0S9.47,6.229,3.444,4.056L0,13.7" transform="translate(29.726 59.415)" fill="none" stroke="#1a3761" stroke-linecap="round" stroke-linejoin="round" stroke-miterlimit="10" stroke-width="1"/>
      <path id="Stroke_3-3" data-name="Stroke 3" d="M11.489,0S9.47,6.229,3.444,4.056L0,13.7" transform="translate(29.726 59.415)" fill="none"/>
    </g>
    <g id="Stroke_5" data-name="Stroke 5">
      <path id="Stroke_5-2" data-name="Stroke 5" d="M0,0,21.033,8.179" transform="translate(36.644 15.427)" fill="none" stroke="#1a3761" stroke-linecap="round" stroke-linejoin="round" stroke-miterlimit="10" stroke-width="1"/>
      <path id="Stroke_5-3" data-name="Stroke 5" d="M0,0,21.033,8.179" transform="translate(36.644 15.427)" fill="none"/>
    </g>
    <g id="Stroke_7" data-name="Stroke 7">
      <path id="Stroke_7-2" data-name="Stroke 7" d="M0,0,11.03,4.157" transform="translate(35.063 50.013)" fill="none" stroke="#1a3761" stroke-linecap="round" stroke-linejoin="round" stroke-miterlimit="10" stroke-width="1"/>
      <path id="Stroke_7-3" data-name="Stroke 7" d="M0,0,11.03,4.157" transform="translate(35.063 50.013)" fill="none"/>
    </g>
    <g id="Stroke_9" data-name="Stroke 9">
      <path id="Stroke_9-2" data-name="Stroke 9" d="M0,0,2.2.8" transform="translate(34.931 52.887)" fill="none" stroke="#1a3761" stroke-linecap="round" stroke-linejoin="round" stroke-miterlimit="10" stroke-width="1"/>
      <path id="Stroke_9-3" data-name="Stroke 9" d="M0,0,2.2.8" transform="translate(34.931 52.887)" fill="none"/>
    </g>
    <g id="Stroke_11" data-name="Stroke 11">
      <path id="Stroke_11-2" data-name="Stroke 11" d="M9.2,6.12,4.561,8.346A3.179,3.179,0,0,1,.31,6.825,3.226,3.226,0,0,1,1.82,2.54L6.464.312a3.179,3.179,0,0,1,4.251,1.523A3.227,3.227,0,0,1,9.2,6.12Z" transform="translate(45.255 44.449)" fill="none" stroke="#1a3761" stroke-linecap="round" stroke-linejoin="round" stroke-miterlimit="10" stroke-width="1"/>
      <path id="Stroke_11-3" data-name="Stroke 11" d="M9.2,6.12,4.561,8.346A3.179,3.179,0,0,1,.31,6.825,3.226,3.226,0,0,1,1.82,2.54L6.464.312a3.179,3.179,0,0,1,4.251,1.523A3.227,3.227,0,0,1,9.2,6.12Z" transform="translate(45.255 44.449)" fill="none"/>
    </g>
    <g id="Stroke_13" data-name="Stroke 13">
      <path id="Stroke_13-2" data-name="Stroke 13" d="M9.2,6.12,4.561,8.347A3.178,3.178,0,0,1,.31,6.825,3.226,3.226,0,0,1,1.82,2.54L6.464.313a3.179,3.179,0,0,1,4.251,1.522A3.226,3.226,0,0,1,9.2,6.12Z" transform="translate(47.137 36.481)" fill="none" stroke="#1a3761" stroke-linecap="round" stroke-linejoin="round" stroke-miterlimit="10" stroke-width="1"/>
      <path id="Stroke_13-3" data-name="Stroke 13" d="M9.2,6.12,4.561,8.347A3.178,3.178,0,0,1,.31,6.825,3.226,3.226,0,0,1,1.82,2.54L6.464.313a3.179,3.179,0,0,1,4.251,1.522A3.226,3.226,0,0,1,9.2,6.12Z" transform="translate(47.137 36.481)" fill="none"/>
    </g>
    <g id="Stroke_15" data-name="Stroke 15">
      <path id="Stroke_15-2" data-name="Stroke 15" d="M9.2,6.12,4.561,8.347A3.178,3.178,0,0,1,.31,6.825,3.226,3.226,0,0,1,1.82,2.54L6.464.313a3.178,3.178,0,0,1,4.251,1.522A3.226,3.226,0,0,1,9.2,6.12Z" transform="translate(48.243 28.874)" fill="none" stroke="#1a3761" stroke-linecap="round" stroke-linejoin="round" stroke-miterlimit="10" stroke-width="1"/>
      <path id="Stroke_15-3" data-name="Stroke 15" d="M9.2,6.12,4.561,8.347A3.178,3.178,0,0,1,.31,6.825,3.226,3.226,0,0,1,1.82,2.54L6.464.313a3.178,3.178,0,0,1,4.251,1.522A3.226,3.226,0,0,1,9.2,6.12Z" transform="translate(48.243 28.874)" fill="none"/>
    </g>
    <g id="Stroke_17" data-name="Stroke 17">
      <path id="Stroke_17-2" data-name="Stroke 17" d="M15,1.2l-.87,2.3a2.156,2.156,0,0,1-2.789,1.26L1.005.792A2.157,2.157,0,0,1,0,0" transform="translate(33.79 35.65)" fill="none" stroke="#1a3761" stroke-linecap="round" stroke-linejoin="round" stroke-miterlimit="10" stroke-width="1"/>
      <path id="Stroke_17-3" data-name="Stroke 17" d="M15,1.2l-.87,2.3a2.156,2.156,0,0,1-2.789,1.26L1.005.792A2.157,2.157,0,0,1,0,0" transform="translate(33.79 35.65)" fill="none"/>
    </g>
    <g id="Stroke_19" data-name="Stroke 19">
      <path id="Stroke_19-2" data-name="Stroke 19" d="M0,5.088,1.392,1.4A2.156,2.156,0,0,1,4.181.143L14.519,4.112a2.185,2.185,0,0,1,1.25,2.812l-.749,2.141" transform="translate(36.09 21.806)" fill="none" stroke="#1a3761" stroke-linecap="round" stroke-linejoin="round" stroke-miterlimit="10" stroke-width="1"/>
      <path id="Stroke_19-3" data-name="Stroke 19" d="M0,5.088,1.392,1.4A2.156,2.156,0,0,1,4.181.143L14.519,4.112a2.185,2.185,0,0,1,1.25,2.812l-.749,2.141" transform="translate(36.09 21.806)" fill="none"/>
    </g>
    <g id="Stroke_21" data-name="Stroke 21">
      <path id="Stroke_21-2" data-name="Stroke 21" d="M8.22,2.556l-2.578-.99-.453,1.2.657.252L4.257,7.223l-.006,0-.606.356L1.676,6.821l-.217-.672L3.048,1.944l.639.245L4.14.99,1.562,0,1.109,1.2l.674.258L0,6.178.365,7.8,3.981,9.192l1.346-.97L7.11,3.5l.656.251Z" transform="translate(39.175 26.294)" fill="none" stroke="#1a3761" stroke-linecap="round" stroke-linejoin="round" stroke-miterlimit="10" stroke-width="1"/>
      <path id="Stroke_21-3" data-name="Stroke 21" d="M8.22,2.556l-2.578-.99-.453,1.2.657.252L4.257,7.223l-.006,0-.606.356L1.676,6.821l-.217-.672L3.048,1.944l.639.245L4.14.99,1.562,0,1.109,1.2l.674.258L0,6.178.365,7.8,3.981,9.192l1.346-.97L7.11,3.5l.656.251Z" transform="translate(39.175 26.294)" fill="none"/>
    </g>
    <g id="Stroke_23" data-name="Stroke 23">
      <path id="Stroke_23-2" data-name="Stroke 23" d="M23.851,16.32,26.41,9.528A2.583,2.583,0,0,0,24.892,6.19L8.375.155A2.551,2.551,0,0,0,5.1,1.692L0,15.745" transform="translate(31.946 12.488)" fill="none" stroke="#1a3761" stroke-linecap="round" stroke-linejoin="round" stroke-miterlimit="10" stroke-width="1"/>
      <path id="Stroke_23-3" data-name="Stroke 23" d="M23.851,16.32,26.41,9.528A2.583,2.583,0,0,0,24.892,6.19L8.375.155A2.551,2.551,0,0,0,5.1,1.692L0,15.745" transform="translate(31.946 12.488)" fill="none"/>
    </g>
    <g id="Stroke_25" data-name="Stroke 25">
      <path id="Stroke_25-2" data-name="Stroke 25" d="M0,3.487,7.507,6.544a2.55,2.55,0,0,0,3.348-1.475L12.766,0" transform="translate(34.082 52.559)" fill="none" stroke="#1a3761" stroke-linecap="round" stroke-linejoin="round" stroke-miterlimit="10" stroke-width="1"/>
      <path id="Stroke_25-3" data-name="Stroke 25" d="M0,3.487,7.507,6.544a2.55,2.55,0,0,0,3.348-1.475L12.766,0" transform="translate(34.082 52.559)" fill="none"/>
    </g>
    <g id="Stroke_27" data-name="Stroke 27">
      <path id="Stroke_27-2" data-name="Stroke 27" d="M11.4,0A39.142,39.142,0,0,1,8.2,5.033q-.892,1.2-1.857,2.3A38.494,38.494,0,0,1,0,13.156" transform="translate(61.616 57.434)" fill="none" stroke="#1a3761" stroke-linecap="round" stroke-linejoin="round" stroke-miterlimit="10" stroke-width="1"/>
      <path id="Stroke_27-3" data-name="Stroke 27" d="M11.4,0A39.142,39.142,0,0,1,8.2,5.033q-.892,1.2-1.857,2.3A38.494,38.494,0,0,1,0,13.156" transform="translate(61.616 57.434)" fill="none"/>
    </g>
    <g id="Stroke_29" data-name="Stroke 29">
      <path id="Stroke_29-2" data-name="Stroke 29" d="M2.139,0A39.1,39.1,0,0,1,0,21.642" transform="translate(74.775 32.007)" fill="none" stroke="#1a3761" stroke-linecap="round" stroke-linejoin="round" stroke-miterlimit="10" stroke-width="1"/>
      <path id="Stroke_29-3" data-name="Stroke 29" d="M2.139,0A39.1,39.1,0,0,1,0,21.642" transform="translate(74.775 32.007)" fill="none"/>
    </g>
    <g id="Stroke_31" data-name="Stroke 31">
      <path id="Stroke_31-2" data-name="Stroke 31" d="M0,0Q.395.7.76,1.41,1.625,3.1,2.318,4.853A39.2,39.2,0,0,1,3.7,9.01" transform="translate(72.504 19.857)" fill="none" stroke="#1a3761" stroke-linecap="round" stroke-linejoin="round" stroke-miterlimit="10" stroke-width="1"/>
      <path id="Stroke_31-3" data-name="Stroke 31" d="M0,0Q.395.7.76,1.41,1.625,3.1,2.318,4.853A39.2,39.2,0,0,1,3.7,9.01" transform="translate(72.504 19.857)" fill="none"/>
    </g>
    <g id="Stroke_33" data-name="Stroke 33">
      <path id="Stroke_33-2" data-name="Stroke 33" d="M0,0Q.512.613.995,1.243,1.805,2.3,2.537,3.4" transform="translate(68.545 14.135)" fill="none" stroke="#1a3761" stroke-linecap="round" stroke-linejoin="round" stroke-miterlimit="10" stroke-width="1"/>
      <path id="Stroke_33-3" data-name="Stroke 33" d="M0,0Q.512.613.995,1.243,1.805,2.3,2.537,3.4" transform="translate(68.545 14.135)" fill="none"/>
    </g>
    <g id="Stroke_35" data-name="Stroke 35">
      <path id="Stroke_35-2" data-name="Stroke 35" d="M0,0Q.723.107,1.444.242A38.208,38.208,0,0,1,17.537,7.4a38.888,38.888,0,0,1,4.8,4.316" transform="translate(44.675 0.699)" fill="none" stroke="#1a3761" stroke-linecap="round" stroke-linejoin="round" stroke-miterlimit="10" stroke-width="1"/>
      <path id="Stroke_35-3" data-name="Stroke 35" d="M0,0Q.723.107,1.444.242A38.208,38.208,0,0,1,17.537,7.4a38.888,38.888,0,0,1,4.8,4.316" transform="translate(44.675 0.699)" fill="none"/>
    </g>
    <g id="Stroke_37" data-name="Stroke 37">
      <path id="Stroke_37-2" data-name="Stroke 37" d="M0,7.087q.4-.29.808-.569A38.366,38.366,0,0,1,18.758,0" transform="translate(16.593 0.468)" fill="none" stroke="#1a3761" stroke-linecap="round" stroke-linejoin="round" stroke-miterlimit="10" stroke-width="1"/>
      <path id="Stroke_37-3" data-name="Stroke 37" d="M0,7.087q.4-.29.808-.569A38.366,38.366,0,0,1,18.758,0" transform="translate(16.593 0.468)" fill="none"/>
    </g>
    <g id="Stroke_39" data-name="Stroke 39">
      <path id="Stroke_39-2" data-name="Stroke 39" d="M0,9.534Q.919,8.04,1.988,6.607A38.82,38.82,0,0,1,8.245,0" transform="translate(6.285 9.157)" fill="none" stroke="#1a3761" stroke-linecap="round" stroke-linejoin="round" stroke-miterlimit="10" stroke-width="1"/>
      <path id="Stroke_39-3" data-name="Stroke 39" d="M0,9.534Q.919,8.04,1.988,6.607A38.82,38.82,0,0,1,8.245,0" transform="translate(6.285 9.157)" fill="none"/>
    </g>
    <g id="Stroke_41" data-name="Stroke 41">
      <path id="Stroke_41-2" data-name="Stroke 41" d="M0,2.553Q.506,1.263,1.11,0" transform="translate(3.215 22.29)" fill="none" stroke="#1a3761" stroke-linecap="round" stroke-linejoin="round" stroke-miterlimit="10" stroke-width="1"/>
      <path id="Stroke_41-3" data-name="Stroke 41" d="M0,2.553Q.506,1.263,1.11,0" transform="translate(3.215 22.29)" fill="none"/>
    </g>
    <g id="Stroke_43" data-name="Stroke 43">
      <path id="Stroke_43-2" data-name="Stroke 43" d="M.3,16.61A39.154,39.154,0,0,1,1.35,1.581Q1.565.787,1.813,0" transform="translate(0.464 27.463)" fill="none" stroke="#1a3761" stroke-linecap="round" stroke-linejoin="round" stroke-miterlimit="10" stroke-width="1"/>
      <path id="Stroke_43-3" data-name="Stroke 43" d="M.3,16.61A39.154,39.154,0,0,1,1.35,1.581Q1.565.787,1.813,0" transform="translate(0.464 27.463)" fill="none"/>
    </g>
    <g id="Stroke_45" data-name="Stroke 45">
      <path id="Stroke_45-2" data-name="Stroke 45" d="M19.927,26.28c-.175-.091-.349-.185-.522-.278a38.746,38.746,0,0,1-4.921-3.182A38.706,38.706,0,0,1,0,0" transform="translate(1.397 47.314)" fill="none" stroke="#1a3761" stroke-linecap="round" stroke-linejoin="round" stroke-miterlimit="10" stroke-width="1"/>
      <path id="Stroke_45-3" data-name="Stroke 45" d="M19.927,26.28c-.175-.091-.349-.185-.522-.278a38.746,38.746,0,0,1-4.921-3.182A38.706,38.706,0,0,1,0,0" transform="translate(1.397 47.314)" fill="none"/>
    </g>
    <g id="Stroke_47" data-name="Stroke 47">
      <path id="Stroke_47-2" data-name="Stroke 47" d="M1.46.622Q.726.329,0,0" transform="translate(23.39 74.597)" fill="none" stroke="#1a3761" stroke-linecap="round" stroke-linejoin="round" stroke-miterlimit="10" stroke-width="1"/>
      <path id="Stroke_47-3" data-name="Stroke 47" d="M1.46.622Q.726.329,0,0" transform="translate(23.39 74.597)" fill="none"/>
    </g>
    <g id="Stroke_49" data-name="Stroke 49">
      <path id="Stroke_49-2" data-name="Stroke 49" d="M3.839,1.017Q3.53.953,3.222.882T2.6.736Q1.293.415,0,0" transform="translate(27.336 76.115)" fill="none" stroke="#1a3761" stroke-linecap="round" stroke-linejoin="round" stroke-miterlimit="10" stroke-width="1"/>
      <path id="Stroke_49-3" data-name="Stroke 49" d="M3.839,1.017Q3.53.953,3.222.882T2.6.736Q1.293.415,0,0" transform="translate(27.336 76.115)" fill="none"/>
    </g>
    <g id="Stroke_51" data-name="Stroke 51">
      <path id="Stroke_51-2" data-name="Stroke 51" d="M15.42,0A38.446,38.446,0,0,1,0,2.576" transform="translate(37.509 75.338)" fill="none" stroke="#1a3761" stroke-linecap="round" stroke-linejoin="round" stroke-miterlimit="10" stroke-width="1"/>
      <path id="Stroke_51-3" data-name="Stroke 51" d="M15.42,0A38.446,38.446,0,0,1,0,2.576" transform="translate(37.509 75.338)" fill="none"/>
    </g>
  </g>
</svg>
